<?xml version="1.0" encoding="UTF-8"?>
<svg version="1.1" xmlns="http://www.w3.org/2000/svg" width="422" height="226">
<path d="M0 0 C3.66032885 2.36383675 6.92049554 4.92049554 10 8 C11.86483709 8.4594412 11.86483709 8.4594412 14 8.75 C22.80731924 10.60491772 29.41748107 15.3596263 34.59765625 22.6484375 C37.82571369 28.06150318 39.01257487 32.92916781 39.125 39.1875 C39.34723846 42.38773382 39.4973925 43.54959816 41.91796875 45.71875 C43.52054048 46.70173037 45.13683084 47.6626716 46.765625 48.6015625 C50.18295977 50.74038391 51.99317355 53.16997776 53 57 C53.44640246 62.42904163 53.73547599 67.79357204 52 73 C51.96125079 74.66621616 51.9549714 76.33394172 52 78 C52.70125 78.185625 53.4025 78.37125 54.125 78.5625 C59.37147723 81.18573861 62.14987459 85.41309924 64.875 90.5 C67.18553375 97.43160125 66.83120476 106.06889043 65.3359375 113.140625 C64.92504095 116.63802353 65.655594 118.09466567 67.375 121.125 C72.26150654 129.88795307 72.34764898 140.53128487 70.31640625 150.28125 C66.76582973 160.77092004 59.32782767 169.72226986 49.73828125 175.3203125 C45.29690667 177.4131068 40.97396647 178.46081923 36.171875 179.36328125 C33.73966323 180.07632175 32.21945917 181.1262202 30.1875 182.625 C25.08496471 186.02330879 19.92409838 186.11360929 14 185 C10.37415303 183.35748186 7.19066735 181.37182352 4 179 C3.35933594 179.40992188 2.71867187 179.81984375 2.05859375 180.2421875 C-6.12961093 185.34303631 -13.25682612 188.13788892 -23 187 C-30.59978304 185.11345301 -36.72358157 181.5765551 -43 177 C-44.485 176.01 -44.485 176.01 -46 175 C-46.061875 175.556875 -46.12375 176.11375 -46.1875 176.6875 C-47.52117079 180.48333226 -50.42340827 183.21170413 -54 185 C-58.81278044 185.52802088 -63.38923205 185.85640895 -67.5625 183.125 C-70 181 -70 181 -71 179 C-73.67717437 178.68073266 -73.67717437 178.68073266 -76.875 178.625 C-88.64637291 177.85226217 -97.77167432 173.80073198 -105.78515625 165.05078125 C-113.21353157 155.76074922 -114.03820473 146.49024339 -113 135 C-111.50191168 129.03303807 -108.10696281 124.44806057 -104.26953125 119.7265625 C-102.80073226 117.91423296 -102.80073226 117.91423296 -102 115 C-102.77576265 113.15207808 -102.77576265 113.15207808 -103.9375 111.1875 C-107.19532002 104.19343884 -107.37184636 96.40158363 -105.08203125 89.0546875 C-102.34304918 83.11579434 -98.92676715 78.96338357 -93 76 C-93.32097656 75.14148438 -93.64195313 74.28296875 -93.97265625 73.3984375 C-95.80113041 67.34987279 -96.29712524 60.53508381 -94.08984375 54.51953125 C-91.21479899 49.59220374 -87.39094594 46.10750161 -81.87109375 44.3046875 C-79.67279294 43.08865709 -79.67279294 43.08865709 -79.3828125 40.09375 C-79.29773438 38.9078125 -79.21265625 37.721875 -79.125 36.5 C-77.94526804 26.56380924 -73.89786471 19.7564981 -66.140625 13.46484375 C-61.52904508 10.30910932 -56.70616222 8.43377006 -51.3125 7.0625 C-47.97893959 5.99324477 -46.23131918 4.63020399 -43.671875 2.3046875 C-32.17716052 -6.66548689 -12.43822435 -6.81091417 0 0 Z " fill="#000000" transform="translate(113,4)"/>
<path d="M0 0 C4.61324487 0.8928861 7.21911625 3.03027704 10.1484375 6.609375 C10.8703125 5.619375 11.5921875 4.629375 12.3359375 3.609375 C16.30999031 -0.35521578 20.46112502 -0.14942938 25.83203125 -0.28515625 C30.60545763 1.00237572 33.34788237 3.56216355 36.1484375 7.609375 C37.05681571 11.00629827 36.97170555 14.2026503 36.83203125 17.69921875 C36.82212662 18.64374405 36.81222198 19.58826935 36.80201721 20.56141663 C36.76304202 23.55819468 36.67525591 26.55121726 36.5859375 29.546875 C36.55080165 31.58653538 36.51886663 33.62625358 36.49023438 35.66601562 C36.41333556 40.64856745 36.29267302 45.6283361 36.1484375 50.609375 C31.5284375 50.609375 26.9084375 50.609375 22.1484375 50.609375 C22.1484375 37.409375 22.1484375 24.209375 22.1484375 10.609375 C20.1684375 10.609375 18.1884375 10.609375 16.1484375 10.609375 C16.1484375 23.809375 16.1484375 37.009375 16.1484375 50.609375 C11.8584375 50.609375 7.5684375 50.609375 3.1484375 50.609375 C3.1484375 37.409375 3.1484375 24.209375 3.1484375 10.609375 C1.1684375 10.609375 -0.8115625 10.609375 -2.8515625 10.609375 C-2.8515625 23.809375 -2.8515625 37.009375 -2.8515625 50.609375 C-7.1415625 50.609375 -11.4315625 50.609375 -15.8515625 50.609375 C-16.0001919 44.45306916 -16.10891306 38.29781368 -16.18115234 32.14013672 C-16.21127387 30.04685264 -16.25218048 27.95369425 -16.30419922 25.86083984 C-16.37721825 22.84701504 -16.41106511 19.83486227 -16.4375 16.8203125 C-16.46846771 15.88883392 -16.49943542 14.95735535 -16.53134155 13.99765015 C-16.53373695 9.34381541 -16.30865223 6.47483612 -13.01391602 3.02099609 C-8.50554138 -0.41710509 -5.49067783 -0.22616064 0 0 Z " fill="#000000" transform="translate(363.8515625,59.390625)"/>
<path d="M0 0 C4.61324487 0.8928861 7.21911625 3.03027704 10.1484375 6.609375 C10.8703125 5.619375 11.5921875 4.629375 12.3359375 3.609375 C16.30999031 -0.35521578 20.46112502 -0.14942938 25.83203125 -0.28515625 C30.60545763 1.00237572 33.34788237 3.56216355 36.1484375 7.609375 C37.05681571 11.00629827 36.97170555 14.2026503 36.83203125 17.69921875 C36.82212662 18.64374405 36.81222198 19.58826935 36.80201721 20.56141663 C36.76304202 23.55819468 36.67525591 26.55121726 36.5859375 29.546875 C36.55080165 31.58653538 36.51886663 33.62625358 36.49023438 35.66601562 C36.41333556 40.64856745 36.29267302 45.6283361 36.1484375 50.609375 C31.5284375 50.609375 26.9084375 50.609375 22.1484375 50.609375 C22.1484375 37.409375 22.1484375 24.209375 22.1484375 10.609375 C20.1684375 10.609375 18.1884375 10.609375 16.1484375 10.609375 C16.1484375 23.809375 16.1484375 37.009375 16.1484375 50.609375 C11.8584375 50.609375 7.5684375 50.609375 3.1484375 50.609375 C3.1484375 37.409375 3.1484375 24.209375 3.1484375 10.609375 C1.1684375 10.609375 -0.8115625 10.609375 -2.8515625 10.609375 C-2.8515625 23.809375 -2.8515625 37.009375 -2.8515625 50.609375 C-7.1415625 50.609375 -11.4315625 50.609375 -15.8515625 50.609375 C-16.0001919 44.45306916 -16.10891306 38.29781368 -16.18115234 32.14013672 C-16.21127387 30.04685264 -16.25218048 27.95369425 -16.30419922 25.86083984 C-16.37721825 22.84701504 -16.41106511 19.83486227 -16.4375 16.8203125 C-16.46846771 15.88883392 -16.49943542 14.95735535 -16.53134155 13.99765015 C-16.53373695 9.34381541 -16.30865223 6.47483612 -13.01391602 3.02099609 C-8.50554138 -0.41710509 -5.49067783 -0.22616064 0 0 Z " fill="#000000" transform="translate(258.8515625,59.390625)"/>
<path d="M0 0 C6.1875 -0.2475 6.1875 -0.2475 12.5 -0.5 C13.78455078 -0.57283203 15.06910156 -0.64566406 16.39257812 -0.72070312 C22.43544462 -0.83727367 26.2700296 -0.57218576 30.79296875 3.67578125 C34.43280281 8.02719082 35.00650519 10.93719115 34.61328125 16.51171875 C33.73425694 20.07820592 31.81372125 21.749023 29 24 C29 24.99 29 25.98 29 27 C29.825 27.495 30.65 27.99 31.5 28.5 C34.90115585 31.90115585 34.70867675 34.3082247 34.95703125 38.953125 C33.36912145 44.0085113 30.49015468 47.21257133 26 50 C21.43767926 50.94018002 17.1324963 50.76265533 12.5 50.5 C8.375 50.335 4.25 50.17 0 50 C0 33.5 0 17 0 0 Z M12 10 C11.77081758 14.01657143 11.77081758 14.01657143 12 18 C12.66 18.66 13.32 19.32 14 20 C17.59679066 19.67673447 17.59679066 19.67673447 21 19 C22.15837626 14.94568308 21.83691257 12.78187881 20 9 C15.67679914 8.49633499 15.67679914 8.49633499 12 10 Z M12 31 C11.97310784 32.47906892 11.95365379 33.95827483 11.9375 35.4375 C11.92589844 36.26121094 11.91429687 37.08492187 11.90234375 37.93359375 C11.76732652 39.99163938 11.76732652 39.99163938 13 41 C15.33297433 41.04092937 17.66705225 41.04241723 20 41 C21.95031608 36.05250648 21.95031608 36.05250648 21 31 C16.38492226 29.95785309 16.38492226 29.95785309 12 31 Z " fill="#000000" transform="translate(201,120)"/>
<path d="M0 0 C4.29 0 8.58 0 13 0 C13 6.6 13 13.2 13 20 C14.32 20 15.64 20 17 20 C17.11593506 19.42967041 17.23187012 18.85934082 17.35131836 18.27172852 C17.87613125 15.70116824 18.40673615 13.13183782 18.9375 10.5625 C19.11990234 9.66466797 19.30230469 8.76683594 19.49023438 7.84179688 C19.66748047 6.98779297 19.84472656 6.13378906 20.02734375 5.25390625 C20.18968506 4.46314697 20.35202637 3.6723877 20.51928711 2.85766602 C21 1 21 1 22 0 C24.18639453 -0.07258946 26.37500389 -0.08373783 28.5625 -0.0625 C30.35880859 -0.04896484 30.35880859 -0.04896484 32.19140625 -0.03515625 C33.11824219 -0.02355469 34.04507813 -0.01195312 35 0 C35.77248538 7.59610622 33.81378898 12.20296333 30.21484375 18.88671875 C28.77237568 22.58333306 28.89767851 24.22061204 30 28 C30.96494952 30.13037332 31.98928035 32.23456409 33.0625 34.3125 C35.7858677 39.98022466 36.63276386 43.77782206 36 50 C31.38 50 26.76 50 22 50 C21.32713788 47.58490559 20.66153988 45.16819644 20 42.75 C19.80921875 42.06808594 19.6184375 41.38617188 19.421875 40.68359375 C18.50042956 37.29399088 18 34.54221024 18 31 C16.35 31 14.7 31 13 31 C13 37.27 13 43.54 13 50 C8.71 50 4.42 50 0 50 C0 33.5 0 17 0 0 Z " fill="#000000" transform="translate(304,60)"/>
<path d="M0 0 C4.29 0 8.58 0 13 0 C13.33 12.87 13.66 25.74 14 39 C15.65 39.33 17.3 39.66 19 40 C19 26.8 19 13.6 19 0 C23.62 0 28.24 0 33 0 C33 16.5 33 33 33 50 C24.75 50 16.5 50 8 50 C0 42 0 42 -0.90820312 37.23632812 C-0.90695507 35.50078654 -0.86283322 33.76487347 -0.78125 32.03125 C-0.76993042 31.11033569 -0.75861084 30.18942139 -0.74694824 29.24060059 C-0.70247959 26.32486939 -0.60218572 23.41422111 -0.5 20.5 C-0.45983428 18.51309232 -0.42333893 16.52610684 -0.390625 14.5390625 C-0.30284238 9.69077658 -0.16501103 4.84624714 0 0 Z " fill="#000000" transform="translate(201,60)"/>
<path d="M0 0 C0.83466797 -0.06251953 1.66933594 -0.12503906 2.52929688 -0.18945312 C7.40618832 -0.31489149 10.64330103 0.45446972 14.49609375 3.53515625 C19.49817271 9.21862127 19.13917589 16.08974387 18.98046875 23.25292969 C18.93752957 25.56091066 18.98012294 27.85646209 19.03125 30.1640625 C19.05915142 36.68593166 19.02944192 42.44028144 14.46875 47.5625 C9.98919237 51.13177319 6.04416509 51.7784871 0.4375 51.5625 C-0.36558594 51.5934375 -1.16867187 51.624375 -1.99609375 51.65625 C-6.71623137 51.59504886 -9.89964836 50.49854833 -13.59765625 47.53125 C-18.5618827 41.95720739 -18.23129037 35.35412378 -18.05053711 28.29931641 C-18.00004177 26.06434897 -18.02977385 23.84048005 -18.06835938 21.60546875 C-18.06881243 15.11909946 -18.04150798 9.73696551 -13.56640625 4.59375 C-11.65844727 2.83007812 -11.65844727 2.83007812 -10.0625 1.5625 C-7.83597692 -0.66402308 -3.06577422 0.09860007 0 0 Z M-3.0625 11.5625 C-3.16243532 13.6230531 -3.19330906 15.6870259 -3.1953125 17.75 C-3.19660156 19.00554687 -3.19789063 20.26109375 -3.19921875 21.5546875 C-3.19712402 22.21178711 -3.1950293 22.86888672 -3.19287109 23.54589844 C-3.18752234 25.55411335 -3.19281691 27.56210459 -3.19921875 29.5703125 C-3.19792969 30.82585937 -3.19664062 32.08140625 -3.1953125 33.375 C-3.19418457 34.53644531 -3.19305664 35.69789063 -3.19189453 36.89453125 C-3.36587474 39.48313284 -3.36587474 39.48313284 -2.0625 40.5625 C0.9375 40.72916667 0.9375 40.72916667 3.9375 40.5625 C5.76784055 38.73215945 5.06792797 35.83038008 5.0703125 33.375 C5.07160156 32.11945313 5.07289063 30.86390625 5.07421875 29.5703125 C5.07212402 28.91321289 5.0700293 28.25611328 5.06787109 27.57910156 C5.06252234 25.57088665 5.06781691 23.56289541 5.07421875 21.5546875 C5.07292969 20.29914063 5.07164062 19.04359375 5.0703125 17.75 C5.06918457 16.58855469 5.06805664 15.42710937 5.06689453 14.23046875 C5.24087474 11.64186716 5.24087474 11.64186716 3.9375 10.5625 C0.13509625 10.08513947 0.13509625 10.08513947 -3.0625 11.5625 Z " fill="#000000" transform="translate(261.0625,119.4375)"/>
<path d="M0 0 C0.80308594 -0.0309375 1.60617187 -0.061875 2.43359375 -0.09375 C7.13497514 -0.03279206 10.33783092 1.05711528 14.03125 4 C19.07270944 9.66217968 18.70175337 16.52374673 18.54296875 23.69042969 C18.50002957 25.99841066 18.54262294 28.29396209 18.59375 30.6015625 C18.62165142 37.12343166 18.59194192 42.87778144 14.03125 48 C9.55169237 51.56927319 5.60666509 52.2159871 0 52 C-0.80308594 52.0309375 -1.60617187 52.061875 -2.43359375 52.09375 C-7.13497514 52.03279206 -10.33783092 50.94288472 -14.03125 48 C-19.07270944 42.33782032 -18.70175337 35.47625327 -18.54296875 28.30957031 C-18.50002957 26.00158934 -18.54262294 23.70603791 -18.59375 21.3984375 C-18.62165142 14.87656834 -18.59194192 9.12221856 -14.03125 4 C-9.55169237 0.43072681 -5.60666509 -0.2159871 0 0 Z M-3.5 11 C-4.8463268 13.69265361 -4.62962636 15.80114249 -4.6328125 18.8125 C-4.63410156 19.97007812 -4.63539063 21.12765625 -4.63671875 22.3203125 C-4.63285156 23.53460938 -4.62898438 24.74890625 -4.625 26 C-4.62886719 27.21429688 -4.63273437 28.42859375 -4.63671875 29.6796875 C-4.63542969 30.83726562 -4.63414062 31.99484375 -4.6328125 33.1875 C-4.63168457 34.25355469 -4.63055664 35.31960937 -4.62939453 36.41796875 C-4.67404198 38.9868214 -4.67404198 38.9868214 -3.5 41 C-1.19 41 1.12 41 3.5 41 C4.8463268 38.30734639 4.62962636 36.19885751 4.6328125 33.1875 C4.63410156 32.02992188 4.63539063 30.87234375 4.63671875 29.6796875 C4.63285156 28.46539062 4.62898438 27.25109375 4.625 26 C4.62886719 24.78570312 4.63273437 23.57140625 4.63671875 22.3203125 C4.63542969 21.16273438 4.63414062 20.00515625 4.6328125 18.8125 C4.63168457 17.74644531 4.63055664 16.68039063 4.62939453 15.58203125 C4.67404198 13.0131786 4.67404198 13.0131786 3.5 11 C1.19 11 -1.12 11 -3.5 11 Z " fill="#000000" transform="translate(305.5,119)"/>
<path d="M0 0 C2.50298434 2.93828597 3.46930939 5.17902761 4 9 C-4.52535922 16.03837796 -12.90927799 21.43118734 -23 26 C-16.6619813 27.57151693 -11.43223981 28.40339778 -5 27 C-3.84607545 24.6921509 -3.46562834 22.52769669 -3 20 C-1.68 20.33 -0.36 20.66 1 21 C1.23815388 23.85784653 1.42847047 26.19887429 1 29 C-2.05237394 32.40121668 -4.5813125 33.3570526 -9 34 C-19.23030656 34.30243837 -29.04664021 32.35795813 -39 30.1875 C-40.15709473 29.9392749 -41.31418945 29.6910498 -42.50634766 29.43530273 C-56.82667688 26.17332312 -56.82667688 26.17332312 -62 21 C-62.4375 18.125 -62.4375 18.125 -62 15 C-59.75 12.5625 -59.75 12.5625 -57 11 C-54.75 11.0625 -54.75 11.0625 -53 12 C-52.67 12.99 -52.34 13.98 -52 15 C-52.33 15.66 -52.66 16.32 -53 17 C-53.66 17 -54.32 17 -55 17 C-54.12346961 19.30181461 -54.12346961 19.30181461 -51.25 20.125 C-39.35048087 23.13017387 -26.76017356 20.53877217 -16 15 C-16.73001221 15.02094727 -17.46002441 15.04189453 -18.2121582 15.06347656 C-21.57879383 15.14756927 -24.94520745 15.19895279 -28.3125 15.25 C-29.46041016 15.28351563 -30.60832031 15.31703125 -31.79101562 15.3515625 C-39.84371023 15.44281116 -48.30826729 14.88396555 -54.7824707 9.52441406 C-56 8 -56 8 -56.3125 5.4375 C-56 3 -56 3 -54 1 C-50.52655171 1.2423336 -48.02009584 1.99035399 -44.875 3.5 C-31.58686041 9.30996579 -13.09103987 4.74508129 0 0 Z " fill="#000000" transform="translate(122,192)"/>
<path d="M0 0 C0 2.64 0 5.28 0 8 C-4.95 10.475 -4.95 10.475 -10 13 C-10.83939269 15.7392959 -10.83939269 15.7392959 -10 19 C-8.36187255 19.810442 -6.6885987 20.55077744 -5 21.25 C-2.15885774 22.75151535 -0.37488004 23.79060176 0.60253906 26.94384766 C1.4087698 32.26703778 1.43602802 37.78332624 0 43 C-2.26878719 45.99163335 -4.47705003 46.91997154 -8 48 C-8.928125 48.53753906 -8.928125 48.53753906 -9.875 49.0859375 C-12.74638873 50.32105692 -15.13955367 50.1926184 -18.25 50.125 C-19.32765625 50.10695312 -20.4053125 50.08890625 -21.515625 50.0703125 C-22.33546875 50.04710937 -23.1553125 50.02390625 -24 50 C-24 46.7 -24 43.4 -24 40 C-21.03 38.68 -18.06 37.36 -15 36 C-14.2444568 33.2587435 -14.2444568 33.2587435 -15 30 C-17.05652619 28.80001472 -17.05652619 28.80001472 -19.5 27.6875 C-22.04993941 26.17131981 -23.65352664 25.06966091 -24.58740234 22.18652344 C-25.6482388 16.02765914 -25.76337161 9.65478905 -22.23046875 4.3359375 C-15.54814227 -1.04981817 -8.21219462 -0.74548741 0 0 Z " fill="#000000" transform="translate(355,120)"/>
<path d="M0 0 C9.57 0 19.14 0 29 0 C29 3.3 29 6.6 29 10 C26.36 10 23.72 10 21 10 C21 23.2 21 36.4 21 50 C16.71 50 12.42 50 8 50 C8 36.8 8 23.6 8 10 C5.36 10 2.72 10 0 10 C0 6.7 0 3.4 0 0 Z " fill="#000000" transform="translate(362,120)"/>
<path d="M0 0 C8.69262672 0.79403802 17.34291147 1.89369712 26 3 C26 3.66 26 4.32 26 5 C17.37194684 5.34008385 9.08570484 5.42268671 1 2 C0.67 1.34 0.34 0.68 0 0 Z " fill="#ECECEC" transform="translate(93,218)"/>
<path d="M0 0 C1.32 0.33 2.64 0.66 4 1 C4 3.64 4 6.28 4 9 C0.42355152 10.2380014 -2.33694766 9.74926071 -6 9 C-5.360625 8.71125 -4.72125 8.4225 -4.0625 8.125 C-1.84793921 7.17176549 -1.84793921 7.17176549 -1 5 C-0.64386903 3.33805547 -0.30791692 1.671549 0 0 Z " fill="#737373" transform="translate(119,212)"/>
</svg>
